<svg version="1.1" xmlns="http://www.w3.org/2000/svg" style="display: block;" viewBox="0 0 2048 2048" width="1024" height="1024" preserveAspectRatio="xMidYMid meet">
<defs>
	<linearGradient id="Gradient1" gradientUnits="userSpaceOnUse" x1="1430.61" y1="1393.38" x2="1540.16" y2="1300.9">
		<stop class="stop0" offset="0" stop-opacity="1" stop-color="rgb(4,29,71)"/>
		<stop class="stop1" offset="1" stop-opacity="1" stop-color="rgb(0,60,157)"/>
	</linearGradient>
	<linearGradient id="Gradient2" gradientUnits="userSpaceOnUse" x1="1129.76" y1="707.033" x2="1159.8" y2="642.566">
		<stop class="stop0" offset="0" stop-opacity="1" stop-color="rgb(6,62,163)"/>
		<stop class="stop1" offset="1" stop-opacity="1" stop-color="rgb(0,81,210)"/>
	</linearGradient>
	<linearGradient id="Gradient3" gradientUnits="userSpaceOnUse" x1="882.266" y1="469.471" x2="1020.4" y2="451.041">
		<stop class="stop0" offset="0" stop-opacity="1" stop-color="rgb(0,44,121)"/>
		<stop class="stop1" offset="1" stop-opacity="1" stop-color="rgb(0,80,214)"/>
	</linearGradient>
	<linearGradient id="Gradient4" gradientUnits="userSpaceOnUse" x1="1054.67" y1="564.358" x2="1161.57" y2="481.378">
		<stop class="stop0" offset="0" stop-opacity="1" stop-color="rgb(0,68,211)"/>
		<stop class="stop1" offset="1" stop-opacity="1" stop-color="rgb(16,124,255)"/>
	</linearGradient>
	<linearGradient id="Gradient5" gradientUnits="userSpaceOnUse" x1="1461.76" y1="684.828" x2="1357.03" y2="525.644">
		<stop class="stop0" offset="0" stop-opacity="1" stop-color="rgb(0,59,167)"/>
		<stop class="stop1" offset="1" stop-opacity="1" stop-color="rgb(4,112,255)"/>
	</linearGradient>
	<linearGradient id="Gradient6" gradientUnits="userSpaceOnUse" x1="640.949" y1="950.745" x2="1189.61" y2="518.752">
		<stop class="stop0" offset="0" stop-opacity="1" stop-color="rgb(0,17,35)"/>
		<stop class="stop1" offset="1" stop-opacity="1" stop-color="rgb(0,41,110)"/>
	</linearGradient>
</defs>
<path transform="translate(0,0)" fill="url(#Gradient6)" d="M 1193.72 742.179 C 1198.26 734.628 1224.71 702.589 1231.37 694.249 C 1266.19 650.855 1301.48 607.84 1337.24 565.211 C 1353.29 545.923 1371.9 522.272 1388.98 503.887 C 1391.97 500.678 1414.32 487.74 1419.07 484.916 C 1430.52 478.002 1441.9 470.963 1453.19 463.801 C 1506.39 430.588 1564.26 395.466 1616.23 360.77 C 1599.47 383.838 1583.55 407.434 1566.29 430.219 C 1551.75 451.786 1535.27 473.987 1520.07 495.308 L 1435.83 614.062 L 1395.52 671.714 C 1393.17 675.063 1380.5 693.379 1378.64 694.995 C 1370.73 707 1356.9 725.02 1350.34 736.545 C 1345.97 740.031 1335.85 754.536 1332.23 759.567 L 1299.03 805.888 C 1293.48 813.657 1284.8 826.55 1278.66 833.321 C 1270.89 842.034 1262.18 855.858 1255.47 865.642 C 1241.69 885.732 1228.47 906.272 1214.37 926.15 C 1156.39 1007.89 1073.46 1062.87 973.872 1078.85 C 879.973 1093.78 783.977 1071.05 706.742 1015.6 C 631.767 961.377 581.288 879.697 566.325 788.389 C 551.986 695.868 571.593 606.994 627.196 531.268 C 682.977 456.441 765.948 406.553 858.195 392.375 C 868.42 390.745 878.185 389.876 888.468 388.895 C 888.123 389.137 884.424 391.731 884.424 391.732 C 871.492 421.763 880.607 454.054 888.345 484.133 C 889.852 489.992 889.083 495.817 892.485 501 C 891.701 504.363 890.057 505.16 888.532 508.124 C 880.58 509.004 867.24 512.336 861.527 512.747 C 855.811 514.58 850.074 516.408 844.416 518.414 C 725.948 560.405 663.284 684.376 701.97 804.022 C 720.975 863.946 763.061 913.834 818.926 942.664 C 868.502 968.421 926.366 973.113 979.443 955.679 C 1021.42 941.914 1061.14 912.544 1087.9 877.766 C 1092.9 871.266 1109.95 848.038 1114.44 844.218 C 1116.82 837.19 1184.34 753.296 1193.72 742.179 z"/>
<path transform="translate(0,0)" fill="url(#Gradient5)" d="M 1193.72 742.179 C 1198.26 734.628 1224.71 702.589 1231.37 694.249 C 1266.19 650.855 1301.48 607.84 1337.24 565.211 C 1353.29 545.923 1371.9 522.272 1388.98 503.887 C 1391.97 500.678 1414.32 487.74 1419.07 484.916 C 1430.52 478.002 1441.9 470.963 1453.19 463.801 C 1506.39 430.588 1564.26 395.466 1616.23 360.77 C 1599.47 383.838 1583.55 407.434 1566.29 430.219 C 1551.75 451.786 1535.27 473.987 1520.07 495.308 L 1435.83 614.062 L 1395.52 671.714 C 1393.17 675.063 1380.5 693.379 1378.64 694.995 C 1368.39 699.74 1362.19 722.91 1352.44 725.715 C 1341.12 722.654 1342.47 731.262 1332.31 736.106 L 1330.76 735.678 C 1331.62 729.153 1351.86 709.762 1349.7 705.594 C 1324.14 740.824 1297.95 777.98 1272.31 812.689 C 1271.51 812.668 1270.68 812.665 1269.9 812.532 C 1245.97 808.418 1222.17 816.927 1199.18 805.088 C 1195.17 803.027 1168.67 785.747 1167.81 784.361 C 1166.44 770.442 1190.12 756.12 1193.72 742.179 z"/>
<path transform="translate(0,0)" fill="rgb(0,56,147)" d="M 1349.7 705.594 C 1356.57 694.546 1373.62 674.268 1382.3 663.285 L 1442.35 586.609 C 1458.39 565.857 1574.45 402.573 1585.4 399.615 C 1585.45 400.856 1567.22 425.662 1564.95 429.637 L 1566.29 430.219 C 1551.75 451.786 1535.27 473.987 1520.07 495.308 L 1435.83 614.062 L 1395.52 671.714 C 1393.17 675.063 1380.5 693.379 1378.64 694.995 C 1368.39 699.74 1362.19 722.91 1352.44 725.715 C 1341.12 722.654 1342.47 731.262 1332.31 736.106 L 1330.76 735.678 C 1331.62 729.153 1351.86 709.762 1349.7 705.594 z"/>
<path transform="translate(0,0)" fill="rgb(0,56,147)" d="M 1193.72 742.179 C 1190.12 756.12 1166.44 770.442 1167.81 784.361 C 1168.67 785.747 1195.17 803.027 1199.18 805.088 C 1222.17 816.927 1245.97 808.418 1269.9 812.532 C 1270.68 812.665 1271.51 812.668 1272.31 812.689 C 1262.99 826.228 1236.94 861.774 1226.29 872.367 L 1227.5 869.386 C 1213.41 866.783 1210.07 868.562 1197.72 868.411 C 1180.56 868.201 1157.53 857.94 1143.48 848.753 C 1139.08 845.772 1132.52 841.62 1129.36 837.425 C 1128.88 836.794 1127.65 833.197 1126.58 831.55 L 1125.29 832.262 L 1126.69 831.657 C 1121.53 834.963 1120.03 841.203 1115.35 844.937 L 1114.44 844.218 C 1116.82 837.19 1184.34 753.296 1193.72 742.179 z"/>
<path transform="translate(0,0)" fill="rgb(21,48,102)" d="M 858.195 392.375 C 868.42 390.745 878.185 389.876 888.468 388.895 C 888.123 389.137 884.424 391.731 884.424 391.732 C 871.492 421.763 880.607 454.054 888.345 484.133 C 889.852 489.992 889.083 495.817 892.485 501 C 891.701 504.363 890.057 505.16 888.532 508.124 C 880.58 509.004 867.24 512.336 861.527 512.747 L 861.587 511.216 C 868.294 509.207 879.912 507.626 887.168 506.433 C 889.974 489.529 872.535 448.755 872.923 426.565 C 873.112 415.751 879.592 395.816 878.756 392.321 C 872.884 390.282 864.327 395.246 858.195 392.375 z"/>
<path transform="translate(0,0)" fill="url(#Gradient4)" d="M 888.468 388.895 C 933.559 382.123 1003.02 393.776 1045.21 410.256 C 1049.76 412.036 1061.88 416.814 1065.12 419.32 C 1075.71 422.136 1088.28 430.232 1097.99 435.58 C 1158.74 469.024 1209.79 529.496 1237.5 593.105 C 1233.79 600.091 1203.09 647.356 1198.66 651.089 C 1196.61 654.816 1194.04 658.255 1191.65 661.776 C 1177.43 682.758 1162.01 702.909 1148.23 724.183 C 1147.55 690.752 1136.85 658.893 1123.56 628.67 C 1118.25 620.986 1113.78 610.654 1107.78 602.595 C 1086.64 574.185 1062.19 552.558 1032.02 534.652 C 983.303 508.92 943.136 502.621 888.532 508.124 C 890.057 505.16 891.701 504.363 892.485 501 C 889.083 495.817 889.852 489.992 888.345 484.133 C 880.607 454.054 871.492 421.763 884.424 391.732 C 884.424 391.731 888.123 389.137 888.468 388.895 z"/>
<path transform="translate(0,0)" fill="url(#Gradient3)" d="M 888.468 388.895 C 933.559 382.123 1003.02 393.776 1045.21 410.256 C 1049.76 412.036 1061.88 416.814 1065.12 419.32 C 1051.98 418.554 1019.25 398.555 1007.71 401.201 L 1007.87 402.766 C 1009 414.473 1006.77 431.267 1009.22 444.134 C 1013.41 466.097 1020.87 488.879 1027.65 510.201 C 1030.67 519.708 1030.4 520.948 1029.17 530.792 L 1032.02 534.652 C 983.303 508.92 943.136 502.621 888.532 508.124 C 890.057 505.16 891.701 504.363 892.485 501 C 889.083 495.817 889.852 489.992 888.345 484.133 C 880.607 454.054 871.492 421.763 884.424 391.732 C 884.424 391.731 888.123 389.137 888.468 388.895 z"/>
<path transform="translate(0,0)" fill="url(#Gradient2)" d="M 1123.56 628.67 C 1125.58 631.313 1127.31 633.664 1129.21 636.404 C 1129.45 634.652 1129.71 633.043 1130.02 631.302 C 1139.19 629.502 1178.51 655.129 1186.84 663.411 C 1193.07 660.947 1190.87 655.496 1198.66 651.089 C 1196.61 654.816 1194.04 658.255 1191.65 661.776 C 1177.43 682.758 1162.01 702.909 1148.23 724.183 C 1147.55 690.752 1136.85 658.893 1123.56 628.67 z"/>
<path transform="translate(0,0)" fill="rgb(1,23,54)" d="M 409.858 1193.39 C 418.723 1192.2 462.016 1193.14 472.714 1193.14 L 532.039 1193.04 C 543.778 1193.04 555.842 1192.5 567.529 1193.74 C 620.25 1199.34 615.839 1248.26 615.172 1287.47 C 614.43 1331.11 624.717 1375.73 566.562 1383.7 C 536.683 1385.17 503.505 1384.53 473.5 1384.15 C 433.335 1383.64 368.662 1395.44 362.868 1339.16 C 361.151 1322.49 362.084 1306.01 362.117 1289.51 C 362.2 1248.37 354.617 1199.86 409.858 1193.39 z M 557.774 1355.3 C 565.657 1352.44 572.099 1349.17 576 1341.26 C 582.279 1328.54 581.851 1250.78 576.573 1237.37 C 574.241 1231.45 569.601 1226.89 563.711 1224.48 C 552.413 1219.85 440.696 1221.25 421.726 1222.18 C 414.15 1224.2 406.681 1227.86 402.582 1234.9 C 395.382 1247.27 396.223 1320.04 400.462 1334.94 C 402.188 1341.01 405.852 1348.84 411.705 1351.97 C 416.39 1354.48 422.57 1355.32 427.843 1355.76 C 450.554 1357.69 474.494 1356.15 497.312 1356.12 C 516.815 1356.1 538.501 1357.94 557.774 1355.3 z"/>
<path transform="translate(0,0)" fill="rgb(1,23,54)" d="M 1350.34 736.545 C 1372.3 764.75 1394.21 795.787 1415.26 824.865 L 1510.13 955.991 L 1556.12 1019.7 C 1563.38 1029.6 1579.18 1049.93 1584.63 1060.01 C 1538.66 1060.1 1488.89 1061.11 1443.2 1060.11 L 1325.32 898.608 L 1296.88 859.738 C 1292.01 853.13 1282 840.181 1278.66 833.321 C 1284.8 826.55 1293.48 813.657 1299.03 805.888 L 1332.23 759.567 C 1335.85 754.536 1345.97 740.031 1350.34 736.545 z"/>
<path transform="translate(0,0)" fill="rgb(1,23,54)" d="M 683.821 1192.97 C 724.91 1193.89 767.293 1192.48 808.466 1193.02 C 825.299 1193.25 856.552 1191.85 872.246 1194.89 C 881.429 1196.57 889.969 1200.76 896.927 1206.98 C 909.8 1218.6 913.911 1233.93 914.463 1250.64 C 915.878 1293.55 894.694 1311.95 852.966 1312.2 C 875.749 1336.23 898.737 1360.07 921.928 1383.71 L 911.25 1384.02 L 874.468 1384.03 C 856.836 1365.34 827.456 1331.81 811.467 1312.16 C 781.525 1311.94 751.583 1311.88 721.64 1312 C 720.434 1334.09 721.146 1361.54 721.271 1384 L 683.053 1384.21 C 684.069 1368.6 682.955 1349.7 683.255 1333.71 C 684.115 1287.96 681.513 1238.39 683.821 1192.97 z M 721.067 1283.98 C 750.411 1283.13 779.843 1284.28 809.123 1283.9 C 826.368 1283.67 858.342 1287.52 871.148 1275.46 C 884.211 1255.02 879.878 1222.99 852.21 1221.47 C 808.788 1219.09 764.526 1221.13 721.059 1220.33 C 721.201 1241.55 721.204 1262.76 721.067 1283.98 z"/>
<path transform="translate(0,0)" fill="rgb(1,23,54)" d="M 974.807 1193.21 C 990.72 1193.28 1006.63 1193.2 1022.55 1192.96 C 1032.04 1212.78 1056.78 1252.11 1068.4 1271.71 C 1080.67 1292.4 1101.27 1328.9 1114.69 1348.01 C 1145.11 1296.28 1177.83 1244.72 1208.97 1193.26 C 1222.48 1192.98 1238.79 1192.89 1252.17 1193.61 C 1247.5 1200.06 1242.54 1208.24 1238.18 1215.04 C 1209.39 1260.7 1182.08 1307.41 1153.25 1353.06 C 1146.67 1363.48 1140.54 1373.89 1133.43 1383.99 C 1118.97 1384.17 1104.51 1384.18 1090.05 1384.02 C 1051.82 1321.67 1011.37 1256.38 974.807 1193.21 z"/>
<path transform="translate(0,0)" fill="rgb(3,84,207)" d="M 1629.68 1193.31 C 1648.85 1192.99 1669.4 1193.54 1688.2 1192.83 C 1672.73 1207.74 1647.71 1231.64 1631.39 1244.83 C 1619.09 1258.28 1594.3 1279.49 1580.13 1291.83 C 1577.02 1296.96 1487.72 1376.42 1478.12 1383.9 C 1457.67 1384.53 1434.51 1384.17 1414.07 1383.95 C 1451.05 1347.39 1493.21 1313.02 1532.28 1278.49 C 1540.78 1270.98 1550.81 1261.36 1559.81 1255 C 1562.11 1251.41 1605.7 1213.42 1610.89 1209.8 C 1616.55 1203.87 1623.2 1198.33 1629.68 1193.31 z"/>
<path transform="translate(0,0)" fill="url(#Gradient1)" d="M 1414.07 1383.95 C 1451.05 1347.39 1493.21 1313.02 1532.28 1278.49 C 1540.78 1270.98 1550.81 1261.36 1559.81 1255 C 1555.97 1264.25 1528.04 1281.1 1527.12 1288.1 C 1531.99 1297.99 1538.6 1300.19 1546.23 1307.65 C 1548.93 1310.3 1548.55 1313.94 1551.69 1315.28 C 1558.79 1311.17 1574.72 1291.09 1580.13 1291.83 C 1577.02 1296.96 1487.72 1376.42 1478.12 1383.9 C 1457.67 1384.53 1434.51 1384.17 1414.07 1383.95 z"/>
<path transform="translate(0,0)" fill="rgb(4,106,253)" d="M 1629.68 1193.31 C 1648.85 1192.99 1669.4 1193.54 1688.2 1192.83 C 1672.73 1207.74 1647.71 1231.64 1631.39 1244.83 C 1632.08 1238.23 1643.65 1234.38 1644.77 1228.82 C 1641.98 1229.14 1643.07 1229.56 1641.19 1228.25 C 1641.18 1227.74 1641.1 1222.93 1641.09 1222.92 C 1636.15 1214.52 1628.67 1208.47 1630.36 1197.55 C 1625.09 1194.69 1620.17 1208.65 1610.89 1209.8 C 1616.55 1203.87 1623.2 1198.33 1629.68 1193.31 z"/>
<path transform="translate(0,0)" fill="rgb(3,84,207)" d="M 953.818 1485.87 L 1014.6 1485.9 C 1026.01 1485.9 1037.01 1485.36 1048.79 1486.68 C 1077.55 1489.9 1086.39 1518.96 1071.68 1541.57 C 1066.41 1549.67 1056.64 1551.79 1047.58 1553.27 C 1056.23 1566.23 1069.14 1580.45 1078.73 1593.01 L 1078.13 1593.91 L 1067.75 1593.88 C 1064.12 1593.69 1057.94 1594.03 1054.12 1594.11 C 1046.4 1585.79 1029.86 1563.65 1023.41 1554.09 C 1007.07 1554.27 990.725 1554.3 974.381 1554.16 C 974.139 1567.39 974.094 1580.62 974.247 1593.85 L 954.157 1594.2 C 953.086 1558.76 955.008 1521.67 953.818 1485.87 z M 974.558 1536.6 C 991.322 1536.42 1039.79 1539.31 1051.32 1532.63 C 1054.65 1528.85 1058.34 1523.58 1057.84 1518.2 C 1057.46 1514.17 1055.56 1511.57 1052.38 1509.25 C 1040.19 1500.37 990.439 1503.91 973.997 1504.01 C 974.112 1514.48 973.976 1526.23 974.558 1536.6 z"/>
<path transform="translate(0,0)" fill="rgb(3,84,207)" d="M 1114.2 1485.8 C 1144.78 1486.81 1178.18 1483.85 1208.36 1487.32 C 1235.25 1490.42 1242.13 1525.81 1225.82 1544.02 C 1216.42 1554.51 1198.52 1554.21 1185.49 1554.72 C 1168.6 1554.4 1151.71 1554.21 1134.82 1554.13 C 1134.4 1564.47 1133.64 1583.71 1134.65 1593.74 C 1128.32 1593.63 1120.78 1594.11 1114.36 1594.36 C 1115.17 1586.71 1114.52 1564.65 1114.5 1555.99 C 1114.68 1532.59 1114.58 1509.19 1114.2 1485.8 z M 1134.41 1536.75 C 1149.91 1536.74 1195.61 1539.19 1206.84 1532.75 C 1210.73 1528.63 1213.1 1525.18 1212.82 1519.3 C 1212.63 1515.3 1210.99 1511.68 1207.93 1509.06 C 1197.51 1500.16 1149.17 1503.91 1134.25 1504.05 C 1134.31 1514.49 1134.66 1526.44 1134.41 1536.75 z"/>
<path transform="translate(0,0)" fill="rgb(1,23,54)" d="M 1314.78 1193.28 C 1327.79 1192.92 1340.89 1193.68 1353.97 1193.09 C 1354.98 1255.67 1354.04 1321.13 1354.09 1383.95 C 1341.22 1384.27 1327.64 1384.04 1314.72 1384.01 C 1315.5 1357.36 1314.97 1328.2 1314.98 1301.38 C 1315.12 1265.35 1315.06 1229.31 1314.78 1193.28 z"/>
<path transform="translate(0,0)" fill="rgb(3,84,207)" d="M 811.886 1485.7 C 847.346 1486.28 882.625 1485.59 917.985 1486.01 C 917.781 1491.62 917.955 1498.35 917.951 1504.05 C 889.897 1503.49 860.16 1504 831.972 1504.01 C 832 1513.03 832.028 1521 831.403 1530.03 C 853.111 1528.77 885.607 1529.81 908.114 1529.83 L 908.13 1547.27 L 864.25 1547.29 L 832.025 1547.17 C 831.686 1556.33 831.944 1566.88 831.951 1576.15 L 918.131 1575.96 C 917.964 1581.9 917.867 1587.85 917.839 1593.79 C 882.582 1593.57 847.323 1593.66 812.067 1594.07 C 811.119 1559.18 812.054 1520.94 811.886 1485.7 z"/>
<path transform="translate(0,0)" fill="rgb(21,48,102)" d="M 1294.68 1535.18 L 1547.1 1535.01 L 1634.41 1534.99 C 1647.31 1534.98 1675.12 1533.38 1688.42 1537.28 C 1690.5 1537.89 1691.13 1539.89 1691.66 1541.85 C 1690.77 1545.25 1690.4 1545.17 1687.72 1547.37 C 1673.89 1548.76 1648.11 1548.07 1633.66 1548.06 L 1535.58 1548.02 L 1377.93 1548.13 C 1352.72 1548.14 1327.21 1547.96 1301.97 1548.2 C 1300.09 1548.22 1294.97 1547.36 1293.39 1546.27 C 1290.71 1544.43 1291.07 1543.83 1290.55 1541.15 C 1291.91 1537.72 1291.73 1537.68 1294.68 1535.18 z"/>
<path transform="translate(0,0)" fill="rgb(21,48,102)" d="M 365.031 1535.2 C 390.57 1534.31 419.983 1535 445.86 1535 L 597.795 1535.01 C 644.224 1535.02 690.663 1534.95 737.092 1535.04 C 743.916 1535.05 752.106 1533.91 755.719 1540.44 C 755.792 1543.98 754.751 1544.81 752.682 1547.72 C 739.602 1548.64 717.668 1548.04 703.939 1548.04 L 611.592 1548.05 C 531.874 1548.04 452.148 1548.12 372.433 1547.86 C 367.489 1547.85 363.939 1548.02 361.704 1543.34 C 362.204 1539.18 362.666 1538.85 365.031 1535.2 z"/>
<path transform="translate(0,0)" fill="rgb(0,56,147)" d="M 1562.82 1321.92 C 1571.62 1313.44 1585.74 1299.39 1595.45 1292.75 C 1599.88 1297.03 1604.24 1301.39 1608.52 1305.83 C 1634.3 1330.09 1665.49 1358.69 1689.69 1384.07 C 1669.79 1384.36 1649.89 1384.33 1629.99 1383.99 C 1620.32 1378.78 1602.36 1359.79 1593.31 1351.27 C 1587.75 1347.98 1568.11 1327.49 1562.82 1321.92 z"/>
<path transform="translate(0,0)" fill="rgb(21,48,102)" d="M 1562.82 1321.92 C 1571.62 1313.44 1585.74 1299.39 1595.45 1292.75 C 1599.88 1297.03 1604.24 1301.39 1608.52 1305.83 C 1603.6 1304.81 1598.67 1298.76 1594.83 1294.84 C 1584.37 1304.31 1562.98 1317.83 1575.85 1332.77 C 1580.28 1337.91 1590.86 1344.72 1593.61 1349.97 L 1593.31 1351.27 C 1587.75 1347.98 1568.11 1327.49 1562.82 1321.92 z"/>
<path transform="translate(0,0)" fill="rgb(21,48,102)" d="M 1425.44 1192.94 C 1444.23 1193.24 1463.31 1193.11 1482.12 1193.15 C 1501.62 1209.93 1527.4 1236.82 1546.58 1251.57 L 1531.58 1264.75 C 1526.86 1268.53 1521.16 1274.22 1516.66 1278.47 C 1489.33 1250.91 1454.36 1220.95 1425.44 1192.94 z"/>
</svg>